<?xml version="1.0" standalone="no"?>
<!DOCTYPE svg PUBLIC "-//W3C//DTD SVG 20010904//EN"
 "http://www.w3.org/TR/2001/REC-SVG-20010904/DTD/svg10.dtd">
<svg version="1.0" xmlns="http://www.w3.org/2000/svg"
 width="1919.000000pt" height="702.000000pt" viewBox="0 0 1919.000000 702.000000"
 preserveAspectRatio="xMidYMid meet">

<g transform="translate(0.000000,702.000000) scale(0.100000,-0.100000)"
fill="#000000" stroke="none">
<path d="M2100 6618 c-36 -20 -51 -37 -83 -99 -108 -204 -177 -295 -264 -346
-39 -23 -45 -23 -105 -13 -35 6 -138 31 -229 57 -193 53 -227 53 -259 0 -11
-18 -20 -40 -20 -50 0 -10 18 -73 40 -140 35 -109 75 -267 68 -272 -2 -1 -32
-9 -68 -19 -141 -38 -336 -136 -458 -230 -78 -60 -200 -188 -249 -261 -77
-114 -127 -235 -154 -370 -67 -342 302 -605 962 -685 l97 -12 21 -82 c86 -323
301 -607 627 -827 73 -49 76 -52 70 -83 -34 -164 -40 -224 -40 -381 0 -257 41
-439 148 -660 180 -369 509 -630 883 -701 113 -21 302 -22 413 0 309 58 596
232 858 520 310 340 428 730 497 1641 33 436 107 693 239 833 65 70 120 95
206 94 77 -1 196 -35 209 -60 25 -46 61 -261 83 -497 25 -261 13 -942 -18
-1070 -4 -18 12 -26 156 -74 91 -30 166 -49 171 -44 14 14 38 180 49 338 27
410 -1 979 -65 1288 -12 62 -20 115 -16 119 13 14 188 97 241 115 39 13 85 18
160 18 89 0 119 -4 193 -29 48 -16 98 -37 111 -47 49 -38 123 -225 177 -444
81 -331 152 -966 133 -1187 -4 -43 -4 -78 -1 -78 3 0 77 -23 163 -50 87 -28
161 -47 166 -42 4 4 13 57 19 117 25 231 -36 866 -117 1223 -110 488 -222 701
-419 793 -44 21 -121 50 -170 65 -83 26 -103 28 -255 28 -155 0 -170 -2 -250
-28 -100 -33 -222 -89 -311 -141 l-64 -37 -90 30 c-201 69 -370 63 -534 -19
-97 -48 -204 -146 -266 -244 l-38 -59 -50 174 c-27 96 -50 176 -52 178 -1 1
-78 -19 -169 -45 -132 -37 -166 -50 -163 -63 148 -527 188 -696 214 -904 16
-134 16 -144 -5 -386 -55 -614 -144 -951 -308 -1169 -185 -247 -459 -444 -694
-500 -115 -28 -278 -28 -386 -1 -492 124 -797 695 -674 1265 l11 50 88 21
c191 46 422 182 665 393 98 85 242 238 303 324 l32 44 -138 97 c-77 53 -143
96 -147 96 -5 0 -22 -19 -39 -42 -48 -68 -222 -244 -314 -317 -183 -146 -365
-245 -471 -258 -45 -5 -55 -2 -120 36 -260 155 -463 383 -541 608 l-18 53 62
0 c90 0 282 18 442 41 575 82 1075 290 1365 566 155 147 252 299 306 479 34
113 39 282 11 384 -70 255 -297 453 -612 535 -151 39 -374 47 -570 21 l-50 -7
-55 83 c-73 112 -246 284 -328 327 -86 45 -152 51 -212 19z"/>
<path d="M13635 5870 c-369 -35 -678 -201 -847 -454 l-45 -67 -44 58 c-117
156 -350 363 -423 377 -70 13 -153 -29 -186 -94 -46 -91 -16 -168 101 -260
105 -83 195 -181 275 -301 76 -114 184 -324 215 -418 12 -36 43 -111 69 -166
27 -55 62 -138 78 -185 227 -649 239 -1399 35 -2215 -58 -233 -106 -377 -182
-550 -226 -510 -471 -834 -787 -1037 -110 -71 -265 -132 -430 -168 -77 -17
-147 -24 -314 -29 -200 -6 -218 -8 -251 -29 -121 -75 -106 -257 25 -307 39
-15 73 -17 253 -12 321 7 517 52 768 177 450 223 789 639 1084 1330 231 543
365 1372 321 1995 -31 444 -114 789 -287 1205 -62 149 -64 158 -64 240 0 143
49 249 165 357 100 94 260 168 420 193 106 18 366 7 477 -18 357 -83 703 -279
1072 -606 100 -89 112 -96 177 -96 102 0 172 70 172 170 0 64 -19 96 -104 175
-336 313 -748 558 -1123 667 -197 57 -447 85 -620 68z"/>
<path d="M10750 5550 c0 -147 0 -150 -22 -154 -13 -3 -63 -12 -113 -21 -577
-108 -993 -513 -1143 -1115 l-26 -105 -3 -987 -4 -987 108 -3 108 -3 6 -110
c37 -633 386 -1134 894 -1280 163 -47 267 -58 489 -52 260 7 401 39 586 132
394 199 660 660 689 1193 l6 117 108 3 108 3 -4 987 c-3 966 -3 989 -24 1073
-73 293 -195 526 -377 717 -211 220 -475 361 -785 418 -48 9 -92 18 -98 20
-10 2 -13 42 -13 154 l0 150 -245 0 -245 0 0 -150z"/>
<path d="M7245 5079 c-82 -33 -151 -62 -153 -64 -6 -6 50 -138 135 -320 l75
-159 59 -636 c32 -349 59 -672 59 -717 0 -255 -161 -968 -303 -1336 l-26 -68
22 -8 c12 -5 83 -36 157 -70 120 -54 136 -59 147 -44 44 58 237 742 294 1040
l23 123 30 -21 c64 -43 197 -100 282 -120 113 -28 292 -30 409 -5 400 87 720
361 817 702 88 313 -90 862 -389 1195 -259 288 -552 439 -853 441 -160 1 -322
-42 -439 -116 -22 -14 -45 -26 -49 -26 -9 0 -74 135 -107 223 -10 26 -23 47
-29 46 -6 0 -78 -27 -161 -60z m920 -434 c217 -55 444 -246 599 -503 118 -196
202 -502 176 -642 -38 -203 -256 -405 -509 -471 -106 -28 -252 -28 -343 1 -88
27 -181 91 -241 165 -84 104 -79 78 -137 729 l-53 589 34 28 c43 35 140 88
193 105 57 18 210 17 281 -1z"/>
<path d="M14015 4997 c-109 -37 -195 -112 -242 -212 -24 -52 -28 -72 -28 -150
0 -82 3 -97 32 -156 40 -80 111 -150 191 -187 48 -23 71 -27 147 -27 82 0 97
3 156 32 80 40 150 111 187 191 22 48 27 71 27 147 0 78 -4 98 -28 151 -36 78
-114 155 -192 190 -71 33 -186 42 -250 21z"/>
<path d="M15645 4299 c-481 -50 -808 -353 -900 -833 -41 -211 -37 -464 11
-795 127 -883 391 -1248 992 -1369 85 -17 104 -17 200 -5 624 75 977 255 1141
582 l39 77 -157 82 -157 81 -29 -66 c-21 -49 -47 -85 -95 -133 -79 -79 -147
-120 -271 -164 -174 -62 -508 -124 -598 -111 -78 12 -223 63 -290 102 -238
141 -371 472 -447 1108 -22 192 -15 473 15 595 65 259 218 416 466 481 67 17
109 21 260 20 525 0 704 -108 845 -506 75 -212 166 -673 177 -890 l6 -120 164
-85 c91 -47 168 -86 172 -88 5 -1 11 35 14 80 23 328 -119 1063 -267 1382 -82
179 -220 340 -363 425 -145 86 -327 133 -578 151 -170 11 -236 11 -350 -1z"/>
<path d="M13958 4084 c-60 -18 -120 -76 -141 -134 -15 -42 -364 -2666 -356
-2674 6 -6 438 -60 442 -55 2 2 81 601 176 1330 113 864 171 1339 167 1362 -4
20 -21 57 -39 83 -55 82 -157 118 -249 88z"/>
<path d="M18002 1783 c-50 -25 -76 -68 -77 -129 0 -73 22 -100 122 -149 46
-22 83 -45 83 -52 0 -20 58 -80 90 -93 43 -18 116 -7 147 21 37 35 73 113 73
158 0 46 -37 125 -77 163 -35 33 -73 48 -123 48 -21 0 -62 11 -92 25 -62 29
-100 31 -146 8z"/>
</g>
</svg>
